# xmcd
#
# Track frame offsets: 
#        150
#        6810
#        25213
#        40507
#        55322
#        77476
#        95739
#        107238
#        123589
#        149821
#        167167
#        183923
#        197743
#        209482
#        226524
#
# Disc length: 3229 seconds
#
# Revision: 3
# Processed by: cddbd v1.5.2PL0 Copyright (c) Steve Scherf et al.
# Submitted via: ExactAudioCopy v0.99pb5
#
DISCID=ca0c9b0f
DTITLE=Cristina Branco - Ulisses
DYEAR=2005
DGENRE=Fado
TTITLE0=Sonhei Que Estava Em Portugal - Anda Luzia
TTITLE1=Alfonsina Y El Mar
TTITLE2=Sete Pedaços De Vento
TTITLE3=Redondo Vocábulo
TTITLE4=A Case Of You
TTITLE5=Navio Triste
TTITLE6=Oh! Como Se Me Alonga De Ano Em Ano
TTITLE7=Choro (Ai Barco Que Me Levasse)
TTITLE8=Liberté
TTITLE9=Cristal (Tinha Algum Vinho Ainda)
TTITLE10=Porque Me Olhas Assim
TTITLE11=E Por Vezes
TTITLE12=Circe (Meu Amor Corre-Me O Corpo)
TTITLE13=Gaivota
TTITLE14=Fundos
EXTD=YEAR: 2004
EXTT0=
EXTT1=
EXTT2=
EXTT3=
EXTT4=
EXTT5=
EXTT6=
EXTT7=
EXTT8=
EXTT9=
EXTT10=
EXTT11=
EXTT12=
EXTT13=
EXTT14=
PLAYORDER=
